<?xml version="1.0" encoding="UTF-8" standalone="no"?>
<svg viewBox="0 0 40 20" version="1.1" xmlns="http://www.w3.org/2000/svg">
    <g transform="translate(-10.000000, -15.000000)">
        <g transform="translate(10.000000, 15.000000)">
            <path d="M7.91040541,18.178625 L0.106216216,12.738 L2.54608108,9.7445 L8.73202703,14.0565 L20.1536486,0.039125 L23.3902703,2.295 L10.7483784,17.809875 C10.0751351,18.6365 8.80486486,18.80175 7.91040541,18.178625 Z"></path>
            <g transform="translate(15.945946, 3.000000)">
                <path d="M9.17648649,0.632125 C9.54756757,0.281375 9.99972973,0.10575 10.5322973,0.10575 C11.0651351,0.10575 11.5209459,0.281375 11.9005405,0.632125 C12.2798649,0.98325 12.4695946,1.405 12.4695946,1.897625 C12.4695946,2.390375 12.2798649,2.80875 11.9005405,3.152 C11.5209459,3.49575 11.0651351,3.66725 10.5322973,3.66725 C9.99972973,3.66725 9.54756757,3.49575 9.17648649,3.152 C8.80459459,2.80875 8.61932432,2.390375 8.61932432,1.897625 C8.61932432,1.404875 8.80459459,0.983125 9.17648649,0.632125 L9.17648649,0.632125 Z"></path>
                <path d="M3.32864865,15.651 C2.94905405,15.994625 2.49297297,16.166 1.96040541,16.166 C1.42756757,16.166 0.975675676,15.994625 0.604324324,15.651 C0.233243243,15.3075 0.0474324324,14.88925 0.0474324324,14.3965 C0.0474324324,13.903875 0.233243243,13.482125 0.604324324,13.131 C0.975675676,12.78025 1.42756757,12.604625 1.96040541,12.604625 C2.49297297,12.604625 2.94905405,12.78025 3.32864865,13.131 C3.70756757,13.482125 3.8977027,13.903875 3.8977027,14.3965 C3.8977027,14.88925 3.70756757,15.3075 3.32864865,15.651 L3.32864865,15.651 Z"></path>
                <path d="M23.0156757,15.662125 C22.507027,16.02825 21.9295946,16.211 21.2841892,16.211 C20.8156757,16.211 20.4243243,16.14 20.1097297,15.998125 C19.7948649,15.856375 19.5440541,15.666 19.3587838,15.427125 C19.172973,15.18825 19.04,14.915625 18.9591892,14.6095 C18.8783784,14.303625 18.8382432,13.993375 18.8382432,13.679875 C18.8382432,13.30675 18.8944595,12.86225 19.0077027,12.347 C19.1204054,11.831875 19.2458108,11.313125 19.382973,10.79025 C19.52,10.26775 19.6452703,9.7565 19.7582432,9.255875 C19.8712162,8.755875 19.9277027,8.326375 19.9277027,7.968 C19.9277027,7.206375 19.6374324,6.8255 19.0559459,6.8255 C18.6201351,6.8255 18.2406757,7.027125 17.9178378,7.430375 C17.5947297,7.833625 17.3448649,8.318875 17.1671622,8.88625 L15.5204054,16.0765 L12.0332432,16.0765 L12.3391892,14.742375 C12.0309459,15.053875 11.7194595,15.309 11.4037838,15.505375 C10.9352703,15.796375 10.4794595,15.987 10.0355405,16.0765 C9.59162162,16.166 9.20837838,16.210875 8.88554054,16.210875 C8.15891892,16.210875 7.54527027,15.998 7.04513514,15.572375 C6.54445946,15.146875 6.29418919,14.46375 6.29418919,13.523 C6.29418919,13.119625 6.35864865,12.634625 6.48797297,12.067 L8.13472973,4.876875 L11.6218919,4.876875 L9.87837838,12.492625 C9.81364865,12.74675 9.78148649,12.985375 9.78148649,13.209375 C9.78148649,13.523125 9.8622973,13.7395 10.0237838,13.859 C10.185,13.978625 10.4352703,14.038125 10.7744595,14.038125 C11.2424324,14.038125 11.6783784,13.851625 12.082027,13.47825 C12.482973,13.107625 12.7718919,12.640875 12.9501351,12.078125 L14.6005405,4.877 L18.0874324,4.877 L17.8210811,6.041625 C18.3375676,5.504 18.8462162,5.16075 19.3468919,5.01125 C19.847027,4.86225 20.2828378,4.78725 20.6544595,4.78725 C21.4293243,4.78725 22.0709459,4.985375 22.5795946,5.380875 C23.087973,5.77675 23.3424324,6.4225 23.3424324,7.3185 C23.3424324,7.7665 23.2817568,8.263125 23.1608108,8.808 C23.0397297,9.35325 22.9063514,9.890875 22.7612162,10.420625 C22.6160811,10.951 22.4827027,11.451125 22.3616216,11.9215 C22.2405405,12.391875 22.18,12.783875 22.18,13.097375 C22.18,13.38125 22.2486486,13.609125 22.3858108,13.780625 C22.5228378,13.9525 22.777027,14.03825 23.1486486,14.03825 C23.5360811,14.03825 23.8024324,13.9935 23.9478378,13.904 C23.8347297,14.710125 23.5240541,15.29625 23.0156757,15.662125 L23.0156757,15.662125 Z"></path>
            </g>
        </g>
    </g>
</svg>
