<?xml version="1.0" encoding="UTF-8" standalone="no"?>
<svg viewBox="0 0 36 13" version="1.1" xmlns="http://www.w3.org/2000/svg">
    <g transform="translate(-277, -537)">
        <g transform="translate(0, 518)">
            <g transform="translate(270, 0)">
                <path d="M23.7837003,24.7166741 C23.8298479,24.3958412 24.017373,23.7956077 24.017373,23.7956077 C24.017373,23.7956077 24.1996007,22.7776064 24.9953328,22.7776064 C25.7910649,22.7776064 26.0560941,23.7895109 26.0560941,23.7895109 C26.0560941,23.7895109 26.162407,24.1432578 26.2037837,24.3157462 C26.2618118,24.5576497 26.3077205,25.0554388 26.3077205,25.0554388 C26.3077205,25.0554388 26.461886,26.8496114 26.58045,27.6169274 C26.6990139,28.3842433 27.6016148,29.7824964 27.6016148,29.7824964 C27.6016148,29.7824964 28.4125861,30.7122136 29.0126877,31.0848014 C29.6127894,31.4573892 31.3807783,31.8675803 31.3807783,31.8675803 C31.3807783,31.8675803 33.6652289,32.089928 35.3894661,31.9024926 C36.3484199,31.7982483 38.3585279,31.224109 38.7368697,30.9155544 C38.872361,30.8050552 40.0724574,30.0400704 40.7141509,28.9639536 C41.3879935,27.8339229 41.5014414,26.3930302 41.5014414,26.3930302 L41.6154626,23.7162126 C41.6154626,23.7162126 41.8099014,22.8328185 42.2555791,22.7776063 C42.378674,22.7623569 42.642246,22.653623 42.8084491,22.3427214 C42.9640703,22.0516145 43.0131261,21.6435227 42.9971196,21.293146 C42.9683273,20.662889 42.3688921,20.0977573 42.3688921,20.0977573 C42.3688921,20.0977573 41.9317612,19.8653926 41.2966292,19.7194129 C40.3681628,19.5060129 39.0393513,19.3426383 38.2225017,19.2487985 C36.568422,19.0587776 33.2797679,19.0535976 33.2797679,19.0535976 C33.2797679,19.0535976 32.8436299,19.0364887 32.27555,19.0992728 C31.4288795,19.1928466 30.252836,19.3918719 29.4983491,19.5091232 C28.9166031,19.5995296 28.0565435,19.8042803 27.3176733,19.950684 C26.5135932,20.1100087 25.8531177,20.2077389 25.8531177,20.2077389 L24.3206778,20.2115196 C24.3206778,20.2115196 23.7940354,20.1426924 23.1664185,20.031101 C22.5382981,19.91942 21.8090057,19.7649417 21.3167555,19.6829341 C20.2069714,19.4980469 18.039008,19.1650096 18.039008,19.1650096 C18.039008,19.1650096 15.9051707,18.9708042 14.86204,19.003767 C13.587749,19.0440344 11.0867428,19.3847001 11.0867428,19.3847001 C11.0867428,19.3847001 9.92478465,19.4897895 9.37184957,19.5929462 C8.90294326,19.6804263 8.02121858,19.9566105 8.02121858,19.9566105 C8.02121858,19.9566105 7.09429283,20.1329759 7.00543427,21.293146 C6.91657572,22.453316 7.94685832,22.8860892 7.94685832,22.8860892 C7.94685832,22.8860892 8.30067995,23.2361253 8.37300088,23.5253899 C8.4453218,23.8146546 8.49761492,24.5267029 8.49761492,24.5267029 C8.49761492,24.5267029 8.46170687,25.9737731 8.55394122,26.6419396 C8.63057528,27.1970941 8.95416457,28.2268041 8.95416457,28.2268041 C8.95416457,28.2268041 9.99281929,30.2375381 11.0514146,30.7927443 C12.6208716,31.6158843 14.5269328,31.8682936 14.5269328,31.8682936 C14.5269328,31.8682936 15.829129,31.992702 16.4740992,31.9996816 C17.0813096,32.0062526 18.2834746,31.9089454 18.2834746,31.9089454 C18.2834746,31.9089454 20.401498,31.4810791 20.9549271,31.1742926 C21.5083562,30.867506 22.7749104,29.3448162 22.7749104,29.3448162 C22.7749104,29.3448162 23.2296719,28.4366769 23.367013,28.0046506 C23.5001431,27.5858708 23.5863241,26.7923978 23.5863241,26.7923978 C23.5863241,26.7923978 23.6861649,25.3947713 23.7837003,24.7166741 Z M21.4820006,27.4532373 C21.7110044,26.8619975 21.8695562,25.3085216 21.8695562,25.3085216 C21.8695562,25.3085216 21.961126,23.3573696 21.5571612,22.4712986 C21.3339178,21.9816284 19.9879318,21.1812979 19.9879318,21.1812979 C19.9879318,21.1812979 18.6073436,20.9300793 17.9886043,20.8900776 C17.1058267,20.8330058 15.4833811,20.8900776 15.4833811,20.8900776 C15.4833811,20.8900776 13.9450748,20.8370221 13.1934235,20.8900776 C12.8763268,20.91246 12.2771373,21.1163915 12.2771373,21.1163915 C12.2771373,21.1163915 11.337201,21.3147093 11.0190033,21.544751 C10.6721662,21.7954976 10.2820329,22.5587563 10.2820329,22.5587563 C10.2820329,22.5587563 10.174799,23.6964833 10.1821881,24.2656068 C10.1909303,24.9389489 10.3304268,26.2861531 10.3304268,26.2861531 C10.3304268,26.2861531 10.5680519,27.5045905 10.9041538,28.0762844 C11.1036877,28.4156825 11.9373343,29.0194291 11.9373343,29.0194291 C11.9373343,29.0194291 12.6283356,29.5272291 13.0608973,29.6979557 C13.4587409,29.8549796 14.4285503,30.0026806 14.4285503,30.0026806 C14.4285503,30.0026806 15.3586806,30.1033381 15.8569956,30.1229395 C16.3777761,30.1434245 17.4858366,30.1229396 17.4858366,30.1229396 C17.4858366,30.1229396 18.5333494,30.0193349 18.9537161,29.8583819 C19.5192087,29.6418619 20.4434145,28.9905207 20.4434145,28.9905207 C20.4434145,28.9905207 21.2356238,28.0893306 21.4820006,27.4532373 Z M37.4908992,21.0328793 C37.1707761,20.9771092 36.4215619,20.9239407 36.4215619,20.9239407 C36.4215619,20.9239407 35.2444043,20.8597302 34.6794564,20.8641099 C33.7653172,20.8711966 31.9843004,20.9583399 31.9843004,20.9583399 C31.9843004,20.9583399 30.7642739,21.0497284 30.2714575,21.1941996 C29.7851325,21.3367678 29.0468762,21.8194581 29.0468762,21.8194581 C29.0468762,21.8194581 28.6050938,22.2421715 28.4754049,22.4897438 C28.3382606,22.7515482 28.2463766,23.3475882 28.2463766,23.3475882 C28.2463766,23.3475882 28.1037634,24.1065143 28.1020838,24.6195514 C28.1006816,25.0478498 28.237131,26.1715948 28.237131,26.1715948 C28.237131,26.1715948 28.4539339,27.140461 28.6170497,27.5607994 C28.7333338,27.8604556 29.0753308,28.3315785 29.0753308,28.3315785 C29.0753308,28.3315785 29.6075709,29.0079809 29.9431521,29.2716963 C30.2107581,29.4819937 30.8848926,29.7536168 30.8848926,29.7536168 C30.8848926,29.7536168 31.4928763,30.0040974 31.8309864,30.0734105 C32.1531973,30.1394641 32.8658553,30.1597169 32.8658553,30.1597169 C32.8658553,30.1597169 33.789798,30.1732137 34.229703,30.159717 C34.6073674,30.1481299 35.3185635,30.0844658 35.3185635,30.0844658 C35.3185635,30.0844658 36.1223058,29.967021 36.476362,29.8680593 C36.797976,29.7781655 37.3455743,29.5178994 37.3455743,29.5178994 C37.3455743,29.5178994 38.0385999,29.1638698 38.3498341,28.9153206 C38.5550021,28.751475 38.8947807,28.2807152 38.8947807,28.2807152 C38.8947807,28.2807152 39.3157466,27.6585698 39.4625265,27.3005048 C39.5985724,26.9686251 39.7432582,26.210881 39.7432582,26.210881 C39.7432582,26.210881 39.8543035,24.7328265 39.8518699,24.0002712 C39.8504737,23.5799874 39.7317687,22.7523638 39.7317687,22.7523638 C39.7317687,22.7523638 39.529599,22.1166982 39.3072828,21.8754457 C39.0715722,21.6196578 38.3576884,21.2612424 38.3576884,21.2612424 C38.3576884,21.2612424 37.8161516,21.0895431 37.4908992,21.0328793 Z"></path>
            </g>
        </g>
    </g>
</svg>
