<svg id="Layer_1" data-name="Layer 1" xmlns="http://www.w3.org/2000/svg" viewBox="0 0 36 13">
  <title>glasses</title>
  <path d="M33.374,3.50058H31.738a6.407,6.407,0,0,0-11.67858,1.02,2.55735,2.55735,0,0,0-1.97245-1.14169,2.92558,2.92558,0,0,0-2.12661,1.20238A6.408,6.408,0,0,0,4.26007,3.50064H2.626a.60322.60322,0,0,0-.60321.60321V4.4279a.60322.60322,0,0,0,.60321.60321H3.67521a6.22282,6.22282,0,0,0-.17975,1.46176,6.3833,6.3833,0,0,0,12.76582,0c0-.02791-.00386-.05487-.00422-.08272.33088-.64561,1.11384-1.76621,1.83035-1.76621.51586-.00048,1.10018.62714,1.65291,1.76164-.00042.02933-.00445.05784-.00445.08729a6.38378,6.38378,0,0,0,12.76677,0,6.22232,6.22232,0,0,0-.17975-1.4617H33.374a.60328.60328,0,0,0,.60327-.60327V4.10385A.60328.60328,0,0,0,33.374,3.50058ZM9.87837,11.53991a5.08877,5.08877,0,0,1-5.1183-5.047,5.1188,5.1188,0,0,1,10.2366,0A5.08877,5.08877,0,0,1,9.87837,11.53991Zm16.24136,0a5.08847,5.08847,0,0,1-5.1183-5.047,5.11831,5.11831,0,0,1,10.23565,0A5.08825,5.08825,0,0,1,26.11973,11.53991Z" />
</svg>
